<?xml version="1.0" standalone="no"?>
<!DOCTYPE svg PUBLIC "-//W3C//DTD SVG 20010904//EN"
 "http://www.w3.org/TR/2001/REC-SVG-20010904/DTD/svg10.dtd">
<svg version="1.0" xmlns="http://www.w3.org/2000/svg"
 width="147.000000pt" height="156.000000pt" viewBox="0 0 147.000000 156.000000"
 preserveAspectRatio="xMidYMid meet">

<g transform="translate(0.000000,156.000000) scale(0.100000,-0.100000)"
fill="#000000" stroke="none">
<path d="M619 1293 l-24 -28 28 24 c25 23 32 31 24 31 -2 0 -14 -12 -28 -27z"/>
<path d="M809 1272 c6 -11 11 -66 11 -121 0 -92 -2 -101 -22 -115 -18 -13 -19
-16 -5 -16 27 0 57 71 57 135 0 57 -18 117 -40 130 -9 6 -9 3 -1 -13z"/>
<path d="M583 1231 c-27 -73 1 -211 43 -211 13 0 13 3 -5 18 -18 15 -21 29
-23 122 -3 97 -4 102 -15 71z"/>
<path d="M715 1221 c30 -5 45 -14 62 -40 13 -19 23 -29 23 -23 0 6 -12 24 -26
41 -21 25 -33 31 -62 30 l-37 -2 40 -6z"/>
<path d="M644 1198 l-19 -23 23 19 c21 18 27 26 19 26 -2 0 -12 -10 -23 -22z"/>
<path d="M459 1089 c-30 -42 -49 -112 -49 -178 0 -71 41 -161 96 -211 l39 -35
-37 40 c-36 39 -38 43 -40 122 -2 45 0 79 5 76 4 -2 7 -9 7 -14 0 -33 95 -117
150 -133 14 -4 2 6 -26 23 -58 34 -111 90 -120 126 -3 14 -9 23 -13 21 -10 -6
-7 98 3 106 6 4 6 12 -1 20 -7 8 -7 22 -2 36 12 31 22 28 15 -5 -5 -21 -4 -24
4 -13 12 19 13 50 1 50 -5 0 -19 -14 -32 -31z"/>
<path d="M920 1103 c0 -10 5 -25 10 -33 8 -11 9 -7 4 14 -5 20 -4 27 4 22 17
-10 9 -184 -11 -221 -16 -31 -64 -80 -107 -108 -13 -10 -19 -17 -13 -17 22 0
110 78 123 109 7 18 15 29 18 26 3 -3 5 -37 5 -75 -1 -39 1 -70 3 -70 3 0 16
24 29 53 41 88 30 209 -25 288 -24 33 -40 38 -40 12z"/>
<path d="M791 1083 c-1 -6 -4 -20 -7 -30 -5 -17 -5 -17 6 0 6 10 9 23 6 30 -3
9 -5 9 -5 0z"/>
<path d="M683 743 c15 -2 39 -2 55 0 15 2 2 4 -28 4 -30 0 -43 -2 -27 -4z"/>
<path d="M914 708 l-29 -33 33 29 c30 28 37 36 29 36 -2 0 -16 -15 -33 -32z"/>
<path d="M388 563 c12 -2 30 -2 40 0 9 3 -1 5 -23 4 -22 0 -30 -2 -17 -4z"/>
<path d="M306 530 c-43 -38 -60 -86 -54 -156 4 -45 11 -61 38 -89 19 -19 36
-33 38 -30 3 3 6 23 7 45 2 49 7 55 33 41 12 -6 36 -10 54 -10 31 1 30 2 -9 8
-23 4 -48 12 -56 19 -7 6 -16 10 -18 8 -2 -2 -5 11 -7 30 -2 41 18 86 50 108
12 9 18 16 12 16 -6 0 -19 -9 -29 -20 -10 -11 -21 -20 -25 -20 -9 0 -5 53 4
69 12 19 -2 12 -38 -19z"/>
<path d="M825 521 c-44 -22 -77 -40 -74 -40 4 -1 44 17 90 39 46 22 79 40 74
40 -6 0 -47 -18 -90 -39z"/>
<path d="M1085 495 c1 -52 -6 -68 -20 -45 -3 6 -12 10 -18 10 -7 0 0 -8 14
-18 23 -15 27 -23 25 -61 -2 -35 -9 -50 -34 -72 -18 -16 -28 -29 -24 -29 5 0
17 9 28 21 l19 21 6 -28 c3 -16 1 -35 -4 -41 -20 -27 10 -12 40 20 44 46 53
69 53 130 0 57 -24 106 -66 134 -20 13 -21 12 -19 -42z"/>
<path d="M993 463 c9 -2 23 -2 30 0 6 3 -1 5 -18 5 -16 0 -22 -2 -12 -5z"/>
<path d="M860 415 c-111 -58 -97 -58 21 0 51 25 86 45 78 44 -8 0 -52 -20 -99
-44z"/>
<path d="M580 280 c-30 -16 -50 -29 -45 -29 6 0 35 13 65 29 30 16 51 29 45
29 -5 0 -35 -13 -65 -29z"/>
<path d="M988 273 c7 -3 16 -2 19 1 4 3 -2 6 -13 5 -11 0 -14 -3 -6 -6z"/>
<path d="M350 240 c8 -5 26 -10 39 -10 32 0 24 6 -19 14 -25 4 -31 3 -20 -4z"/>
<path d="M458 233 c6 -2 18 -2 25 0 6 3 1 5 -13 5 -14 0 -19 -2 -12 -5z"/>
<path d="M998 233 c12 -2 32 -2 45 0 12 2 2 4 -23 4 -25 0 -35 -2 -22 -4z"/>
</g>
</svg>
